<svg width="955" height="1069" viewBox="0 0 955 1069" fill="none" xmlns="http://www.w3.org/2000/svg">
<path d="M518.814 271.914V463.338C518.814 467.608 523.088 469.743 526.65 467.608L905.605 251.988C909.167 249.854 909.167 244.872 905.605 242.737L738.209 145.958C732.511 142.4 725.388 142.4 719.689 145.958L528.075 255.546C522.376 259.105 518.814 265.509 518.814 271.914Z" fill="#2F342F"/>
<path d="M15.2035 829.109L183.311 925.888C189.01 929.446 196.133 929.446 201.832 925.888L421.227 802.067C430.487 797.086 436.185 787.123 436.185 776.449V248.43V231.351C436.185 219.965 442.596 209.291 451.856 203.598L637.772 97.5671C641.334 95.4322 641.334 90.4509 637.772 88.3161L492.459 4.34536C483.198 -0.635954 472.514 -0.635954 463.253 4.34536L15.2035 262.662C5.94328 267.643 0.957031 277.606 0.957031 287.569V803.49C0.957031 814.165 6.6556 824.127 15.2035 829.109Z" fill="#2F342F"/>
<path d="M528.075 562.252C522.376 565.81 518.814 571.503 518.814 578.619V1063.23C518.814 1067.5 523.088 1069.63 526.65 1067.5L939.796 829.108C949.057 824.126 954.043 814.164 954.043 804.201V328.842C954.043 324.572 949.769 322.437 946.207 324.572L528.075 562.252Z" fill="#2F342F"/>
<path d="M427.637 893.865L283.748 975.701C280.187 977.836 280.187 982.817 283.748 984.952L427.637 1067.5C431.199 1069.63 435.473 1066.79 435.473 1063.23V898.847C435.473 893.865 431.199 891.73 427.637 893.865Z" fill="#2F342F"/>
</svg>
